# xmcd
#
# Track frame offsets: 
#        150
#        20782
#        37643
#        54852
#        71385
#        84942
#        85694
#        101181
#        121113
#        140797
#        151732
#        182661
#
# Disc length: 2739 seconds
#
# Revision: 0
# Processed by: cddbd v1.5.2PL0 Copyright (c) Steve Scherf et al.
# Submitted via: ExactAudioCopyFreeDBPlugin 1.0
#
DISCID=8a0ab10c
DTITLE=Haranni Hurricans - Ridin'
DYEAR=2013
DGENRE=
TTITLE0=This Night
TTITLE1=Big Boss
TTITLE2=Like A Lion
TTITLE3=Ridin'
TTITLE4=Lady in Love
TTITLE5=The Eye Of The Hurricane
TTITLE6=Blind
TTITLE7=Time Change Love
TTITLE8=Hurricane Swing
TTITLE9=Runnin' All The Time
TTITLE10=Somehow Someday
TTITLE11=Truth
EXTD=
EXTT0=
EXTT1=
EXTT2=
EXTT3=
EXTT4=
EXTT5=
EXTT6=
EXTT7=
EXTT8=
EXTT9=
EXTT10=
EXTT11=
PLAYORDER=
